<svg width="23" height="24" viewBox="0 0 23 24" fill="none" xmlns="http://www.w3.org/2000/svg">
<path d="M17.3454 16.8384C17.1748 17.0368 17.1859 17.3331 17.3709 17.518L22.1762 22.3233C22.2738 22.421 22.2738 22.5792 22.1762 22.6769C22.0785 22.7745 21.9203 22.7745 21.8226 22.6769L17.0173 17.8715C16.8323 17.6866 16.5361 17.6754 16.3377 17.846C14.6856 19.2668 12.5374 20.125 10.1875 20.125C4.97531 20.125 0.75 15.8997 0.75 10.6875C0.75 5.47531 4.97531 1.25 10.1875 1.25C15.3997 1.25 19.625 5.47531 19.625 10.6875C19.625 13.0378 18.7665 15.1863 17.3454 16.8384ZM10.1875 1.75C5.25145 1.75 1.25 5.75145 1.25 10.6875C1.25 15.6235 5.25145 19.625 10.1875 19.625C15.1235 19.625 19.125 15.6235 19.125 10.6875C19.125 5.75145 15.1235 1.75 10.1875 1.75Z" stroke="black" stroke-linecap="round" stroke-linejoin="round"/>
</svg>
